{
  "accessors": [
    {
      "bufferView": 2,
      "componentType": 5126,
      "count": 500,
      "max": [
        0.29096001386642456,
        3.7459900379180908,
        1.4328999519348145
      ],
      "min": [
        -0.29096001386642456,
        -3.7459900379180908,
        -1.4328999519348145
      ],
      "type": "VEC3"
    },
    {
      "bufferView": 2,
      "byteOffset": 6000,
      "componentType": 5126,
      "count": 500,
      "max": [
        1,
        0.99993085861206055,
        0.97379601001739502
      ],
      "min": [
        -1,
        -0.99981755018234253,
        -1
      ],
      "type": "VEC3"
    },
    {
      "bufferView": 3,
      "componentType": 5126,
      "count": 500,
      "max": [
        1,
        0.89660769701004028,
        1,
        1
      ],
      "min": [
        -1,
        -0.9862866997718811,
        -1,
        1
      ],
      "type": "VEC4"
    },
    {
      "bufferView": 1,
      "componentType": 5126,
      "count": 500,
      "max": [
        1,
        1
      ],
      "min": [
        0,
        0
      ],
      "type": "VEC2"
    },
    {
      "bufferView": 0,
      "componentType": 5125,
      "count": 1338,
      "max": [
        499
      ],
      "min": [
        0
      ],
      "type": "SCALAR"
    }
  ],
  "asset": {
    "generator": "Sketchfab (OSG glTF plugin)",
    "version": "2.0"
  },
  "bufferViews": [
    {
      "buffer": 0,
      "byteLength": 5352,
      "byteOffset": 0,
      "name": "floatBufferViews",
      "target": 34963
    },
    {
      "buffer": 0,
      "byteLength": 4000,
      "byteOffset": 5352,
      "byteStride": 8,
      "name": "floatBufferViews",
      "target": 34962
    },
    {
      "buffer": 0,
      "byteLength": 12000,
      "byteOffset": 9352,
      "byteStride": 12,
      "name": "floatBufferViews",
      "target": 34962
    },
    {
      "buffer": 0,
      "byteLength": 8000,
      "byteOffset": 21352,
      "byteStride": 16,
      "name": "floatBufferViews",
      "target": 34962
    }
  ],
  "buffers": [
    {
      "byteLength": 29352,
      "uri": "scene.bin"
    }
  ],
  "images": [
    {
      "uri": "textures/Scene%20-%20Root_normal.png"
    },
    {
      "uri": "textures/Scene%20-%20Root_baseColor.png"
    },
    {
      "uri": "textures/Scene%20-%20Root_metallicRoughness.png"
    }
  ],
  "materials": [
    {
      "doubleSided": true,
      "emissiveFactor": [
        0,
        0,
        0
      ],
      "name": "Scene - Root",
      "normalTexture": {
        "index": 0,
        "scale": 1,
        "texCoord": 0
      },
      "pbrMetallicRoughness": {
        "baseColorFactor": [
          1,
          1,
          1,
          1
        ],
        "baseColorTexture": {
          "index": 1,
          "texCoord": 0
        },
        "metallicFactor": 1,
        "metallicRoughnessTexture": {
          "index": 2,
          "texCoord": 0
        },
        "roughnessFactor": 0.122808689
      }
    }
  ],
  "meshes": [
    {
      "name": "Circle_002_0",
      "primitives": [
        {
          "attributes": {
            "NORMAL": 1,
            "POSITION": 0,
            "TANGENT": 2,
            "TEXCOORD_0": 3
          },
          "indices": 4,
          "material": 0,
          "mode": 4
        }
      ]
    }
  ],
  "nodes": [
    {
      "children": [
        1
      ],
      "name": "RootNode (gltf orientation matrix)",
      "rotation": [
        -0.70710678118654746,
        -0,
        -0,
        0.70710678118654757
      ]
    },
    {
      "children": [
        2
      ],
      "name": "RootNode (model correction matrix)"
    },
    {
      "children": [
        3
      ],
      "name": "Root"
    },
    {
      "children": [
        4
      ],
      "matrix": [
        0,
        0,
        -1,
        0,
        0,
        1,
        0,
        0,
        1,
        0,
        0,
        0,
        0,
        1.1600100000000002,
        0,
        1
      ],
      "name": "Circle_002"
    },
    {
      "children": [
        5
      ],
      "name": "Geode"
    },
    {
      "mesh": 0,
      "name": "Circle_002_0"
    }
  ],
  "samplers": [
    {
      "magFilter": 9729,
      "minFilter": 9987,
      "wrapS": 10497,
      "wrapT": 10497
    }
  ],
  "scene": 0,
  "scenes": [
    {
      "name": "OSG_Scene",
      "nodes": [
        0
      ]
    }
  ],
  "textures": [
    {
      "sampler": 0,
      "source": 0
    },
    {
      "sampler": 0,
      "source": 1
    },
    {
      "sampler": 0,
      "source": 2
    }
  ]
}

