{
  "accessors": [
    {
      "bufferView": 2,
      "componentType": 5126,
      "count": 113,
      "max": [
        78.668495178222656,
        48.248672485351562,
        5.0346007347106934
      ],
      "min": [
        78.213493347167969,
        48.227333068847656,
        4.915092945098877
      ],
      "type": "VEC3"
    },
    {
      "bufferView": 2,
      "byteOffset": 1356,
      "componentType": 5126,
      "count": 113,
      "max": [
        0.06521499902009964,
        -0.13048931956291199,
        0.075252793729305267
      ],
      "min": [
        -0.065221145749092102,
        -0.99992227554321289,
        -0.99144977331161499
      ],
      "type": "VEC3"
    },
    {
      "bufferView": 3,
      "componentType": 5126,
      "count": 113,
      "max": [
        0,
        0,
        0,
        1
      ],
      "min": [
        0,
        0,
        0,
        1
      ],
      "type": "VEC4"
    },
    {
      "bufferView": 1,
      "componentType": 5126,
      "count": 113,
      "max": [
        1,
        1
      ],
      "min": [
        0,
        0
      ],
      "type": "VEC2"
    },
    {
      "bufferView": 0,
      "componentType": 5125,
      "count": 114,
      "max": [
        112
      ],
      "min": [
        0
      ],
      "type": "SCALAR"
    },
    {
      "bufferView": 2,
      "byteOffset": 2712,
      "componentType": 5126,
      "count": 8340,
      "max": [
        93.459495544433594,
        18.955558776855469,
        -9.7719478607177734
      ],
      "min": [
        -17.059757232666016,
        5.9751195907592773,
        -36.741973876953125
      ],
      "type": "VEC3"
    },
    {
      "bufferView": 2,
      "byteOffset": 102792,
      "componentType": 5126,
      "count": 8340,
      "max": [
        1,
        1,
        1
      ],
      "min": [
        -1,
        -1,
        -1
      ],
      "type": "VEC3"
    },
    {
      "bufferView": 3,
      "byteOffset": 1808,
      "componentType": 5126,
      "count": 8340,
      "max": [
        1,
        1,
        1,
        1
      ],
      "min": [
        -0.73063004016876221,
        -1,
        -1,
        -1
      ],
      "type": "VEC4"
    },
    {
      "bufferView": 1,
      "byteOffset": 904,
      "componentType": 5126,
      "count": 8340,
      "max": [
        0.98796415328979492,
        0.97316288948059082
      ],
      "min": [
        0.008687247522175312,
        -4.232128389958234e-07
      ],
      "type": "VEC2"
    },
    {
      "bufferView": 0,
      "byteOffset": 456,
      "componentType": 5125,
      "count": 16542,
      "max": [
        8339
      ],
      "min": [
        0
      ],
      "type": "SCALAR"
    }
  ],
  "asset": {
    "generator": "Sketchfab (OSG glTF plugin)",
    "version": "2.0"
  },
  "bufferViews": [
    {
      "buffer": 0,
      "byteLength": 66624,
      "byteOffset": 0,
      "name": "floatBufferViews",
      "target": 34963
    },
    {
      "buffer": 0,
      "byteLength": 67624,
      "byteOffset": 66624,
      "byteStride": 8,
      "name": "floatBufferViews",
      "target": 34962
    },
    {
      "buffer": 0,
      "byteLength": 202872,
      "byteOffset": 134248,
      "byteStride": 12,
      "name": "floatBufferViews",
      "target": 34962
    },
    {
      "buffer": 0,
      "byteLength": 135248,
      "byteOffset": 337120,
      "byteStride": 16,
      "name": "floatBufferViews",
      "target": 34962
    }
  ],
  "buffers": [
    {
      "byteLength": 472368,
      "uri": "scene.bin"
    }
  ],
  "images": [
    {
      "uri": "textures/Foregrou_baseColor.jpeg"
    },
    {
      "uri": "textures/Foregrou_normal.png"
    },
    {
      "uri": "textures/Foregrou_metallicRoughness.png"
    },
    {
      "uri": "textures/Material%20%2336_baseColor.jpeg"
    },
    {
      "uri": "textures/Material%20%2336_normal.png"
    },
    {
      "uri": "textures/Material%20%2336_metallicRoughness.png"
    }
  ],
  "materials": [
    {
      "doubleSided": true,
      "name": "Foregrou",
      "normalTexture": {
        "index": 1,
        "scale": 1,
        "texCoord": 0
      },
      "pbrMetallicRoughness": {
        "baseColorFactor": [
          1,
          1,
          1,
          1
        ],
        "baseColorTexture": {
          "index": 0,
          "texCoord": 0
        },
        "metallicFactor": 0.66037735850000001,
        "metallicRoughnessTexture": {
          "index": 2,
          "texCoord": 0
        },
        "roughnessFactor": 0.75471698109999996
      }
    },
    {
      "doubleSided": true,
      "name": "Material #36",
      "normalTexture": {
        "index": 4,
        "scale": 0.20754716979999999,
        "texCoord": 0
      },
      "pbrMetallicRoughness": {
        "baseColorFactor": [
          1,
          1,
          1,
          1
        ],
        "baseColorTexture": {
          "index": 3,
          "texCoord": 0
        },
        "metallicFactor": 0.57861635219999996,
        "metallicRoughnessTexture": {
          "index": 5,
          "texCoord": 0
        },
        "roughnessFactor": 0.18238993709999995
      }
    }
  ],
  "meshes": [
    {
      "name": "Mesh04_Foregrou_0",
      "primitives": [
        {
          "attributes": {
            "NORMAL": 1,
            "POSITION": 0,
            "TANGENT": 2,
            "TEXCOORD_0": 3
          },
          "indices": 4,
          "material": 0,
          "mode": 4
        }
      ]
    },
    {
      "name": "Object004_Material #36_0",
      "primitives": [
        {
          "attributes": {
            "NORMAL": 6,
            "POSITION": 5,
            "TANGENT": 7,
            "TEXCOORD_0": 8
          },
          "indices": 9,
          "material": 1,
          "mode": 4
        }
      ]
    }
  ],
  "nodes": [
    {
      "children": [
        1
      ],
      "name": "RootNode (gltf orientation matrix)",
      "rotation": [
        -0.70710678118654746,
        -0,
        -0,
        0.70710678118654757
      ]
    },
    {
      "children": [
        2
      ],
      "name": "RootNode (model correction matrix)"
    },
    {
      "children": [
        3
      ],
      "matrix": [
        1,
        0,
        0,
        0,
        0,
        0,
        1,
        0,
        0,
        -1,
        0,
        0,
        0,
        0,
        0,
        1
      ],
      "name": "key10.FBX"
    },
    {
      "children": [
        4,
        7
      ],
      "name": "RootNode"
    },
    {
      "children": [
        5
      ],
      "matrix": [
        1,
        0,
        0,
        0,
        0,
        2.2204460492503131e-16,
        -1,
        0,
        0,
        1,
        2.2204460492503131e-16,
        0,
        -150.88063049316406,
        0,
        84.847404479980469,
        1
      ],
      "name": "Mesh04"
    },
    {
      "children": [
        6
      ],
      "name": "Geode"
    },
    {
      "mesh": 0,
      "name": "Mesh04_Foregrou_0"
    },
    {
      "children": [
        8
      ],
      "matrix": [
        1,
        0,
        0,
        0,
        0,
        0.94623452520658335,
        0.32348141106881512,
        0,
        0,
        -0.32348141106881512,
        0.94623452520658335,
        0,
        38.315433502197266,
        0.028114557266235352,
        -13.986862182617188,
        1
      ],
      "name": "Object004"
    },
    {
      "children": [
        9
      ],
      "matrix": [
        1,
        0,
        -0,
        0,
        0,
        1,
        0,
        0,
        0,
        0,
        1,
        0,
        -66.970779418945312,
        -12.491943359375,
        23.266057968139648,
        1
      ],
      "name": ""
    },
    {
      "children": [
        10
      ],
      "name": "Geode"
    },
    {
      "mesh": 1,
      "name": "Object004_Material #36_0"
    }
  ],
  "samplers": [
    {
      "magFilter": 9729,
      "minFilter": 9987,
      "wrapS": 10497,
      "wrapT": 10497
    }
  ],
  "scene": 0,
  "scenes": [
    {
      "name": "OSG_Scene",
      "nodes": [
        0
      ]
    }
  ],
  "textures": [
    {
      "sampler": 0,
      "source": 0
    },
    {
      "sampler": 0,
      "source": 1
    },
    {
      "sampler": 0,
      "source": 2
    },
    {
      "sampler": 0,
      "source": 3
    },
    {
      "sampler": 0,
      "source": 4
    },
    {
      "sampler": 0,
      "source": 5
    }
  ]
}

