{
  "accessors": [
    {
      "bufferView": 1,
      "componentType": 5126,
      "count": 7,
      "max": [
        1.3435180187225342,
        5.7883110046386719,
        0.13547897338867188
      ],
      "min": [
        0.76482599973678589,
        5.7873210906982422,
        0.059214949607849121
      ],
      "type": "VEC3"
    },
    {
      "bufferView": 1,
      "byteOffset": 84,
      "componentType": 5126,
      "count": 7,
      "max": [
        -0.00065999978687614202,
        -0.99991464614868164,
        0.013050995767116547
      ],
      "min": [
        -0.00065999978687614202,
        -0.99991464614868164,
        0.013050995767116547
      ],
      "type": "VEC3"
    },
    {
      "bufferView": 2,
      "componentType": 5126,
      "count": 7,
      "max": [
        8.6713444034103304e-05,
        0.01305103488266468,
        0.99991488456726074,
        1
      ],
      "min": [
        -5.6618115195306018e-05,
        0.013050940819084644,
        0.99991482496261597,
        1
      ],
      "type": "VEC4"
    },
    {
      "bufferView": 0,
      "componentType": 5125,
      "count": 15,
      "max": [
        6
      ],
      "min": [
        0
      ],
      "type": "SCALAR"
    },
    {
      "bufferView": 1,
      "byteOffset": 168,
      "componentType": 5126,
      "count": 424,
      "max": [
        0.82211697101593018,
        3.3926129341125488,
        0.22119498252868652
      ],
      "min": [
        0.6245419979095459,
        3.3244471549987793,
        0.023620963096618652
      ],
      "type": "VEC3"
    },
    {
      "bufferView": 1,
      "byteOffset": 5256,
      "componentType": 5126,
      "count": 424,
      "max": [
        0.99276423454284668,
        0.99999278783798218,
        0.98071587085723877
      ],
      "min": [
        -0.99276423454284668,
        -0.99999278783798218,
        -0.98374021053314209
      ],
      "type": "VEC3"
    },
    {
      "bufferView": 2,
      "byteOffset": 112,
      "componentType": 5126,
      "count": 424,
      "max": [
        0.99999994039535522,
        0.99662727117538452,
        0.99999988079071045,
        1
      ],
      "min": [
        -0.98641550540924072,
        -0.99662202596664429,
        -0.99999988079071045,
        1
      ],
      "type": "VEC4"
    },
    {
      "bufferView": 0,
      "byteOffset": 60,
      "componentType": 5125,
      "count": 720,
      "max": [
        423
      ],
      "min": [
        0
      ],
      "type": "SCALAR"
    },
    {
      "bufferView": 1,
      "byteOffset": 10344,
      "componentType": 5126,
      "count": 2142,
      "max": [
        1.4466578960418701,
        3.3244471549987793,
        0.24481600522994995
      ],
      "min": [
        0,
        1.9616950750350952,
        0
      ],
      "type": "VEC3"
    },
    {
      "bufferView": 1,
      "byteOffset": 36048,
      "componentType": 5126,
      "count": 2142,
      "max": [
        1,
        1,
        1
      ],
      "min": [
        -1,
        -1,
        -1
      ],
      "type": "VEC3"
    },
    {
      "bufferView": 2,
      "byteOffset": 6896,
      "componentType": 5126,
      "count": 2142,
      "max": [
        1,
        1,
        1,
        1
      ],
      "min": [
        -0.92947375774383545,
        -1,
        -1,
        1
      ],
      "type": "VEC4"
    },
    {
      "bufferView": 0,
      "byteOffset": 2940,
      "componentType": 5125,
      "count": 5577,
      "max": [
        2141
      ],
      "min": [
        0
      ],
      "type": "SCALAR"
    },
    {
      "bufferView": 1,
      "byteOffset": 61752,
      "componentType": 5126,
      "count": 887,
      "max": [
        1.3593559265136719,
        6.4525079727172852,
        0.19915199279785156
      ],
      "min": [
        0.087301969528198242,
        2.1397490501403809,
        0.032508969306945801
      ],
      "type": "VEC3"
    },
    {
      "bufferView": 1,
      "byteOffset": 72396,
      "componentType": 5126,
      "count": 887,
      "max": [
        1,
        1,
        1
      ],
      "min": [
        -1,
        -1,
        -1
      ],
      "type": "VEC3"
    },
    {
      "bufferView": 2,
      "byteOffset": 41168,
      "componentType": 5126,
      "count": 887,
      "max": [
        1,
        1,
        1,
        1
      ],
      "min": [
        -0.89639908075332642,
        -1,
        -1,
        -1
      ],
      "type": "VEC4"
    },
    {
      "bufferView": 0,
      "byteOffset": 25248,
      "componentType": 5125,
      "count": 2535,
      "max": [
        886
      ],
      "min": [
        0
      ],
      "type": "SCALAR"
    },
    {
      "bufferView": 1,
      "byteOffset": 83040,
      "componentType": 5126,
      "count": 2734,
      "max": [
        1.0457299947738647,
        1.9745800495147705,
        0.25472301244735718
      ],
      "min": [
        0.39748698472976685,
        0,
        0.0063170194625854492
      ],
      "type": "VEC3"
    },
    {
      "bufferView": 1,
      "byteOffset": 115848,
      "componentType": 5126,
      "count": 2734,
      "max": [
        1,
        1,
        1
      ],
      "min": [
        -1,
        -1,
        -1
      ],
      "type": "VEC3"
    },
    {
      "bufferView": 2,
      "byteOffset": 55360,
      "componentType": 5126,
      "count": 2734,
      "max": [
        1,
        1,
        1,
        1
      ],
      "min": [
        -0.85009771585464478,
        -0.56104457378387451,
        -1,
        1
      ],
      "type": "VEC4"
    },
    {
      "bufferView": 0,
      "byteOffset": 35388,
      "componentType": 5125,
      "count": 7080,
      "max": [
        2733
      ],
      "min": [
        0
      ],
      "type": "SCALAR"
    },
    {
      "bufferView": 1,
      "byteOffset": 148656,
      "componentType": 5126,
      "count": 52,
      "max": [
        0.78474897146224976,
        2.98797607421875,
        0.18382799625396729
      ],
      "min": [
        0.66190999746322632,
        2.3377790451049805,
        0.060987949371337891
      ],
      "type": "VEC3"
    },
    {
      "bufferView": 1,
      "byteOffset": 149280,
      "componentType": 5126,
      "count": 52,
      "max": [
        1,
        -0,
        0.98768877983093262
      ],
      "min": [
        -1,
        -1.0000004522225936e-06,
        -0.98768877983093262
      ],
      "type": "VEC3"
    },
    {
      "bufferView": 2,
      "byteOffset": 99104,
      "componentType": 5126,
      "count": 52,
      "max": [
        0.98768883943557739,
        1.5838773492760083e-07,
        1,
        1
      ],
      "min": [
        -0.80901879072189331,
        -1.5839711409171287e-07,
        -0.58778572082519531,
        1
      ],
      "type": "VEC4"
    },
    {
      "bufferView": 0,
      "byteOffset": 63708,
      "componentType": 5125,
      "count": 120,
      "max": [
        51
      ],
      "min": [
        0
      ],
      "type": "SCALAR"
    }
  ],
  "asset": {
    "generator": "Sketchfab (OSG glTF plugin)",
    "version": "2.0"
  },
  "bufferViews": [
    {
      "buffer": 0,
      "byteLength": 64188,
      "byteOffset": 0,
      "name": "floatBufferViews",
      "target": 34963
    },
    {
      "buffer": 0,
      "byteLength": 149904,
      "byteOffset": 64188,
      "byteStride": 12,
      "name": "floatBufferViews",
      "target": 34962
    },
    {
      "buffer": 0,
      "byteLength": 99936,
      "byteOffset": 214092,
      "byteStride": 16,
      "name": "floatBufferViews",
      "target": 34962
    }
  ],
  "buffers": [
    {
      "byteLength": 314028,
      "uri": "scene.bin"
    }
  ],
  "materials": [
    {
      "doubleSided": true,
      "emissiveFactor": [
        0,
        0,
        0
      ],
      "name": "blinn3SG",
      "pbrMetallicRoughness": {
        "baseColorFactor": [
          0.02,
          0.01,
          0.14999999999999999,
          1
        ],
        "metallicFactor": 1,
        "roughnessFactor": 0.030000000000000027
      }
    },
    {
      "doubleSided": true,
      "emissiveFactor": [
        0,
        0,
        0
      ],
      "name": "blinn4SG",
      "pbrMetallicRoughness": {
        "baseColorFactor": [
          1,
          0.60999999999999999,
          0,
          1
        ],
        "metallicFactor": 1,
        "roughnessFactor": 0
      }
    },
    {
      "doubleSided": true,
      "emissiveFactor": [
        0,
        0,
        0
      ],
      "name": "blinn5SG",
      "pbrMetallicRoughness": {
        "baseColorFactor": [
          0.1028690976,
          0.1028690976,
          0.1028690976,
          1
        ],
        "metallicFactor": 1,
        "roughnessFactor": 0.069999999999999951
      }
    },
    {
      "doubleSided": true,
      "emissiveFactor": [
        0,
        0,
        0
      ],
      "name": "blinn6SG",
      "pbrMetallicRoughness": {
        "baseColorFactor": [
          0.23999999999999999,
          0.23999999999999999,
          0.23999999999999999,
          1
        ],
        "metallicFactor": 0.68000000000000005,
        "roughnessFactor": 0.07999999999999996
      }
    },
    {
      "doubleSided": true,
      "emissiveFactor": [
        0,
        0,
        0
      ],
      "name": "blinn7SG",
      "pbrMetallicRoughness": {
        "baseColorFactor": [
          0.01,
          0.01,
          0.01,
          1
        ],
        "metallicFactor": 0.58999999999999997,
        "roughnessFactor": 1
      }
    },
    {
      "doubleSided": true,
      "emissiveFactor": [
        0,
        0,
        0
      ],
      "name": "initialShadingGroup",
      "pbrMetallicRoughness": {
        "baseColorFactor": [
          0.60999999999999999,
          0.60999999999999999,
          0.60999999999999999,
          1
        ],
        "metallicFactor": 0,
        "roughnessFactor": 0.59999999999999998
      }
    }
  ],
  "meshes": [
    {
      "primitives": [
        {
          "attributes": {
            "NORMAL": 1,
            "POSITION": 0,
            "TANGENT": 2
          },
          "indices": 3,
          "material": 5,
          "mode": 4
        }
      ]
    },
    {
      "primitives": [
        {
          "attributes": {
            "NORMAL": 5,
            "POSITION": 4,
            "TANGENT": 6
          },
          "indices": 7,
          "material": 0,
          "mode": 4
        }
      ]
    },
    {
      "primitives": [
        {
          "attributes": {
            "NORMAL": 9,
            "POSITION": 8,
            "TANGENT": 10
          },
          "indices": 11,
          "material": 1,
          "mode": 4
        }
      ]
    },
    {
      "primitives": [
        {
          "attributes": {
            "NORMAL": 13,
            "POSITION": 12,
            "TANGENT": 14
          },
          "indices": 15,
          "material": 2,
          "mode": 4
        }
      ]
    },
    {
      "primitives": [
        {
          "attributes": {
            "NORMAL": 17,
            "POSITION": 16,
            "TANGENT": 18
          },
          "indices": 19,
          "material": 3,
          "mode": 4
        }
      ]
    },
    {
      "primitives": [
        {
          "attributes": {
            "NORMAL": 21,
            "POSITION": 20,
            "TANGENT": 22
          },
          "indices": 23,
          "material": 4,
          "mode": 4
        }
      ]
    }
  ],
  "nodes": [
    {
      "children": [
        1
      ],
      "name": "RootNode (gltf orientation matrix)",
      "rotation": [
        -0.70710678118654746,
        -0,
        -0,
        0.70710678118654757
      ]
    },
    {
      "children": [
        2
      ],
      "matrix": [
        -1,
        0,
        0,
        0,
        0,
        0.0010261439019814134,
        0.99999946355819702,
        0,
        0,
        0.99999946355819702,
        -0.0010261439019814134,
        0,
        0.00093314319383352995,
        1.791936993598938,
        -1.7937767505645752,
        1
      ],
      "name": "RootNode (model correction matrix)"
    },
    {
      "children": [
        3
      ],
      "matrix": [
        1,
        0,
        0,
        0,
        0,
        1,
        0,
        0,
        0,
        0,
        1,
        0,
        -0.72286897897720337,
        -2.4250290393829346,
        -1.0903149843215942,
        1
      ],
      "name": "key blade 1.obj.cleaner.gles"
    },
    {
      "children": [
        4
      ],
      "name": ""
    },
    {
      "children": [
        5,
        6,
        7,
        8,
        9,
        10
      ],
      "name": "Geode"
    },
    {
      "mesh": 0,
      "name": ""
    },
    {
      "mesh": 1,
      "name": ""
    },
    {
      "mesh": 2,
      "name": ""
    },
    {
      "mesh": 3,
      "name": ""
    },
    {
      "mesh": 4,
      "name": ""
    },
    {
      "mesh": 5,
      "name": ""
    }
  ],
  "scene": 0,
  "scenes": [
    {
      "name": "OSG_Scene",
      "nodes": [
        0
      ]
    }
  ]
}

